<svg width="140" height="23" viewBox="0 0 140 23" fill="none" xmlns="http://www.w3.org/2000/svg">
<path d="M11.7895 0L14.9879 6.8872L22.5264 7.80085L16.9647 12.971L18.4253 20.4229L11.7895 16.731L5.1537 20.4229L6.61428 12.971L1.05255 7.80085L8.59104 6.8872L11.7895 0Z" fill="#FF0000"/>
<path d="M40.8549 0L44.0534 6.8872L51.5919 7.80085L46.0301 12.971L47.4907 20.4229L40.8549 16.731L34.2191 20.4229L35.6797 12.971L30.118 7.80085L37.6565 6.8872L40.8549 0Z" fill="#FF0000"/>
<path d="M69.9213 0L73.1198 6.8872L80.6583 7.80085L75.0965 12.971L76.5571 20.4229L69.9213 16.731L63.2855 20.4229L64.7461 12.971L59.1844 7.80085L66.7229 6.8872L69.9213 0Z" fill="#FF0000"/>
<path d="M98.9868 0L102.185 6.8872L109.724 7.80085L104.162 12.971L105.623 20.4229L98.9868 16.731L92.351 20.4229L93.8116 12.971L88.2498 7.80085L95.7883 6.8872L98.9868 0Z" fill="#FF0000"/>
<path d="M128.052 0L131.251 6.8872L138.789 7.80085L133.227 12.971L134.688 20.4229L128.052 16.731L121.416 20.4229L122.877 12.971L117.315 7.80085L124.854 6.8872L128.052 0Z" fill="#FF0000"/>
</svg>
