<svg width="193" height="23" viewBox="0 0 193 23" fill="none"  xmlns="http://www.w3.org/2000/svg">
<path d="M11.2895 0.810449L14.4879 7.09765L22.0264 8.0113L16.4647 13.1815L17.9253 20.6333L11.2895 16.9415L4.6537 20.6333L6.11428 13.1815L0.552547 8.0113L8.09104 7.09765L11.2895 0.210449Z" fill="#FF0000"/>
<path d="M53.8686 0.210449L57.067 7.09765L64.6055 8.0113L59.0438 13.1815L60.5044 20.6333L53.8686 16.9415L47.2328 20.6333L48.6934 13.1815L43.1316 8.0113L50.6701 7.09765L53.8686 0.210449Z" fill="#FF0000"/>
<path d="M96.4477 0.210449L99.6461 7.09765L107.185 8.0113L101.623 13.1815L103.083 20.6333L96.4477 16.9415L89.8119 20.6333L91.2725 13.1815L85.7108 8.0113L93.2492 7.09765L96.4477 0.210449Z" fill="#FF0000"/>
<path d="M139.027 0.210449L142.225 7.09765L149.764 8.0113L144.202 13.1815L145.663 20.6333L139.027 16.9415L132.391 20.6333L133.852 13.1815L128.29 8.0113L135.828 7.09765L139.027 0.210449Z" fill="#FF0000"/>
<path d="M181.606 0.210449L184.804 7.09765L192.343 8.0113L186.781 13.1815L188.242 20.6333L181.606 16.9415L174.97 20.6333L176.431 13.1815L170.869 8.0113L178.407 7.09765L181.606 0.210449Z" fill="#FF0000"/>
</svg>
