<svg width="22" height="21" viewBox="0 0 22 21" fill="none" xmlns="http://www.w3.org/2000/svg">
<path d="M20.7963 18.7041L16.3441 14.25C17.679 12.5104 18.3023 10.3282 18.0874 8.14606C17.8725 5.96389 16.8356 3.94515 15.1871 2.49936C13.5385 1.05356 11.4018 0.28898 9.21021 0.360705C7.01865 0.432429 4.93644 1.33509 3.38595 2.88558C1.83546 4.43607 0.932796 6.51829 0.861071 8.70984C0.789347 10.9014 1.55393 13.0382 2.99972 14.6867C4.44552 16.3353 6.46426 17.3722 8.64643 17.587C10.8286 17.8019 13.0108 17.1787 14.7504 15.8437L19.2063 20.3006C19.3109 20.4053 19.4352 20.4883 19.5719 20.5449C19.7086 20.6015 19.8552 20.6307 20.0032 20.6307C20.1512 20.6307 20.2977 20.6015 20.4344 20.5449C20.5712 20.4883 20.6954 20.4053 20.8 20.3006C20.9047 20.196 20.9877 20.0717 21.0443 19.935C21.101 19.7983 21.1301 19.6517 21.1301 19.5037C21.1301 19.3557 21.101 19.2092 21.0443 19.0725C20.9877 18.9357 20.9047 18.8115 20.8 18.7069L20.7963 18.7041ZM3.12536 8.99999C3.12536 7.73914 3.49925 6.5066 4.19974 5.45823C4.90024 4.40987 5.89587 3.59277 7.06075 3.11026C8.22563 2.62775 9.50743 2.50151 10.7441 2.74749C11.9807 2.99347 13.1166 3.60063 14.0082 4.49219C14.8997 5.38375 15.5069 6.51966 15.7529 7.75629C15.9988 8.99292 15.8726 10.2747 15.3901 11.4396C14.9076 12.6045 14.0905 13.6001 13.0421 14.3006C11.9938 15.0011 10.7612 15.375 9.50036 15.375C7.81014 15.3733 6.18964 14.701 4.99447 13.5059C3.7993 12.3107 3.1271 10.6902 3.12536 8.99999Z" fill="black" fill-opacity="0.4"/>
</svg>
