<svg width="23" height="21" viewBox="0 0 23 21" fill="none" xmlns="http://www.w3.org/2000/svg">
<path d="M9.375 18.75C9.375 19.1208 9.26503 19.4834 9.059 19.7917C8.85298 20.1 8.56014 20.3404 8.21753 20.4823C7.87492 20.6242 7.49792 20.6613 7.1342 20.589C6.77049 20.5166 6.4364 20.338 6.17417 20.0758C5.91195 19.8136 5.73337 19.4795 5.66103 19.1158C5.58868 18.7521 5.62581 18.3751 5.76773 18.0325C5.90964 17.6899 6.14996 17.397 6.45831 17.191C6.76665 16.985 7.12916 16.875 7.5 16.875C7.99728 16.875 8.47419 17.0725 8.82582 17.4242C9.17745 17.7758 9.375 18.2527 9.375 18.75ZM17.25 16.875C16.8792 16.875 16.5166 16.985 16.2083 17.191C15.9 17.397 15.6596 17.6899 15.5177 18.0325C15.3758 18.3751 15.3387 18.7521 15.411 19.1158C15.4834 19.4795 15.662 19.8136 15.9242 20.0758C16.1864 20.338 16.5205 20.5166 16.8842 20.589C17.2479 20.6613 17.6249 20.6242 17.9675 20.4823C18.3101 20.3404 18.603 20.1 18.809 19.7917C19.015 19.4834 19.125 19.1208 19.125 18.75C19.125 18.2527 18.9275 17.7758 18.5758 17.4242C18.2242 17.0725 17.7473 16.875 17.25 16.875ZM22.0753 5.58094L19.5169 13.8966C19.3535 14.4343 19.0211 14.9051 18.569 15.239C18.1169 15.5729 17.5692 15.7521 17.0072 15.75H7.77469C7.2046 15.7482 6.65046 15.5616 6.1953 15.2183C5.74015 14.8751 5.40848 14.3936 5.25 13.8459L2.04469 2.625H1.125C0.826631 2.625 0.540483 2.50647 0.329505 2.2955C0.118526 2.08452 0 1.79837 0 1.5C0 1.20163 0.118526 0.915483 0.329505 0.704505C0.540483 0.493526 0.826631 0.375 1.125 0.375H2.32687C2.73407 0.376258 3.12988 0.509515 3.45493 0.754779C3.77998 1.00004 4.01674 1.34409 4.12969 1.73531L4.81312 4.125H21C21.1761 4.12499 21.3497 4.1663 21.5069 4.24561C21.664 4.32492 21.8004 4.44001 21.905 4.58164C22.0096 4.72326 22.0795 4.88746 22.1091 5.06102C22.1387 5.23458 22.1271 5.41266 22.0753 5.58094ZM19.4766 6.375H5.45531L7.41375 13.2281C7.43617 13.3065 7.48354 13.3755 7.54867 13.4245C7.6138 13.4736 7.69315 13.5001 7.77469 13.5H17.0072C17.0875 13.5002 17.1656 13.4746 17.2303 13.427C17.2949 13.3794 17.3426 13.3123 17.3662 13.2356L19.4766 6.375Z" fill="black"/>
</svg>
