<svg width="22" height="21" viewBox="0 0 22 21" fill="none" xmlns="http://www.w3.org/2000/svg">
<path d="M11 0.375C8.99747 0.375 7.0399 0.968821 5.37486 2.08137C3.70981 3.19392 2.41206 4.77523 1.64572 6.62533C0.879387 8.47543 0.678878 10.5112 1.06955 12.4753C1.46023 14.4393 2.42454 16.2435 3.84055 17.6595C5.25656 19.0755 7.06066 20.0398 9.02471 20.4305C10.9888 20.8211 13.0246 20.6206 14.8747 19.8543C16.7248 19.0879 18.3061 17.7902 19.4186 16.1251C20.5312 14.4601 21.125 12.5025 21.125 10.5C21.122 7.8156 20.0543 5.24199 18.1562 3.34383C16.258 1.44567 13.6844 0.377978 11 0.375ZM6.45969 16.9284C6.98195 16.2143 7.66528 15.6335 8.45418 15.2331C9.24308 14.8327 10.1153 14.624 11 14.624C11.8847 14.624 12.7569 14.8327 13.5458 15.2331C14.3347 15.6335 15.0181 16.2143 15.5403 16.9284C14.2134 17.8695 12.6268 18.375 11 18.375C9.37323 18.375 7.78665 17.8695 6.45969 16.9284ZM8.375 9.75C8.375 9.23082 8.52896 8.72331 8.8174 8.29163C9.10583 7.85995 9.5158 7.5235 9.99546 7.32482C10.4751 7.12614 11.0029 7.07415 11.5121 7.17544C12.0213 7.27672 12.489 7.52673 12.8562 7.89384C13.2233 8.26096 13.4733 8.72869 13.5746 9.23789C13.6759 9.74709 13.6239 10.2749 13.4252 10.7545C13.2265 11.2342 12.8901 11.6442 12.4584 11.9326C12.0267 12.221 11.5192 12.375 11 12.375C10.3038 12.375 9.63613 12.0984 9.14385 11.6062C8.65157 11.1139 8.375 10.4462 8.375 9.75ZM17.1875 15.3694C16.4583 14.4419 15.5289 13.6914 14.4688 13.1737C15.1444 12.4896 15.6026 11.6208 15.7858 10.6769C15.9689 9.73288 15.8688 8.75583 15.498 7.86861C15.1273 6.9814 14.5024 6.22364 13.702 5.69068C12.9017 5.15771 11.9616 4.87334 11 4.87334C10.0384 4.87334 9.09833 5.15771 8.29797 5.69068C7.49762 6.22364 6.87275 6.9814 6.50198 7.86861C6.13121 8.75583 6.0311 9.73288 6.21424 10.6769C6.39739 11.6208 6.85561 12.4896 7.53125 13.1737C6.4711 13.6914 5.54168 14.4419 4.8125 15.3694C3.89661 14.2083 3.32614 12.8129 3.1664 11.3427C3.00665 9.87254 3.2641 8.38711 3.90925 7.05644C4.55441 5.72578 5.5612 4.60366 6.81439 3.81855C8.06757 3.03343 9.5165 2.61703 10.9953 2.61703C12.4741 2.61703 13.9231 3.03343 15.1762 3.81855C16.4294 4.60366 17.4362 5.72578 18.0814 7.05644C18.7265 8.38711 18.984 9.87254 18.8242 11.3427C18.6645 12.8129 18.094 14.2083 17.1781 15.3694H17.1875Z" fill="black"/>
</svg>
